# xmcd CD database file
# Copyright (C) 1995-1998 Ti Kan
#
# Track frame offsets:
#	150
#	11092
#	21675
#	38255
#	48172
#	64598
#	78320
#	92805
#	104902
#	120600
#	132754
#	142785
#
# Disc length: 2150 seconds
#
# Revision: 2
# Processed by: cddbd v1.4b41PL1 Copyright (c) Steve Scherf et al.
# Submitted via: CDex 1.40Beta0
#
DISCID=9808640c
DTITLE=Jimi Hocking - Standard Bohemian
DYEAR=1998
DGENRE=Blues
TTITLE0=Love In A Jar
TTITLE1=Always In Between
TTITLE2=One Last Time
TTITLE3=Secrets I Told My Cat
TTITLE4=Long Gone
TTITLE5=Brussel Sprout
TTITLE6=Hell Toupee
TTITLE7=Whe I Went Overseas
TTITLE8=Deja Voodoo Man
TTITLE9=Children Missing
TTITLE10=Earth Spoke To Me
TTITLE11=Loopy Wisdom
EXTD=YEAR: 1998 ID3G:   0
EXTT0=
EXTT1=
EXTT2=
EXTT3=
EXTT4=
EXTT5=
EXTT6=
EXTT7=
EXTT8=
EXTT9=
EXTT10=
EXTT11=
PLAYORDER=
